<mxfile host="app.diagrams.net" modified="2023-12-26T13:15:39.889Z" agent="Mozilla/5.0 (X11; Linux x86_64) AppleWebKit/537.36 (KHTML, like Gecko) Chrome/117.0.0.0 Safari/537.36" version="22.1.11" etag="QHmI1GWrH1Gw_RQbH2Ef" type="github">
  <diagram name="Page-1" id="RCzVIw21s0QxX4_HmofW">
    <mxGraphModel>
      <root>
        <mxCell id="0" />
        <mxCell id="1" parent="0" />
        <mxCell id="2" value="Start" style="whiteSpace=wrap;strokeWidth=2;" vertex="1" parent="1">
          <mxGeometry y="254" width="49" height="32" as="geometry" />
        </mxCell>
        <mxCell id="3" value="Enter a website" style="rhombus;strokeWidth=2;whiteSpace=wrap;" vertex="1" parent="1">
          <mxGeometry x="99" y="191" width="157" height="157" as="geometry" />
        </mxCell>
        <mxCell id="4" value="Click on the login button" style="rhombus;strokeWidth=2;whiteSpace=wrap;" vertex="1" parent="1">
          <mxGeometry x="307" y="161" width="218" height="218" as="geometry" />
        </mxCell>
        <mxCell id="5" value="Enter username and password" style="whiteSpace=wrap;strokeWidth=2;" vertex="1" parent="1">
          <mxGeometry x="575" y="254" width="233" height="32" as="geometry" />
        </mxCell>
        <mxCell id="6" value="Are username and password correct?" style="rhombus;strokeWidth=2;whiteSpace=wrap;" vertex="1" parent="1">
          <mxGeometry x="857" y="113" width="314" height="314" as="geometry" />
        </mxCell>
        <mxCell id="7" value="Yes" style="rhombus;strokeWidth=2;whiteSpace=wrap;" vertex="1" parent="1">
          <mxGeometry x="2383" y="67" width="73" height="73" as="geometry" />
        </mxCell>
        <mxCell id="8" value="Is the user registered?" style="rhombus;strokeWidth=2;whiteSpace=wrap;" vertex="1" parent="1">
          <mxGeometry x="2546" width="206" height="206" as="geometry" />
        </mxCell>
        <mxCell id="9" value="Login successful" style="whiteSpace=wrap;strokeWidth=2;" vertex="1" parent="1">
          <mxGeometry x="2803" y="172" width="133" height="32" as="geometry" />
        </mxCell>
        <mxCell id="10" value="End" style="whiteSpace=wrap;strokeWidth=2;" vertex="1" parent="1">
          <mxGeometry x="2986" y="172" width="43" height="32" as="geometry" />
        </mxCell>
        <mxCell id="11" value="No" style="rhombus;strokeWidth=2;whiteSpace=wrap;" vertex="1" parent="1">
          <mxGeometry x="1221" y="320" width="68" height="68" as="geometry" />
        </mxCell>
        <mxCell id="12" value="Is the user registered?" style="rhombus;strokeWidth=2;whiteSpace=wrap;" vertex="1" parent="1">
          <mxGeometry x="1339" y="251" width="206" height="206" as="geometry" />
        </mxCell>
        <mxCell id="13" value="Register" style="whiteSpace=wrap;strokeWidth=2;" vertex="1" parent="1">
          <mxGeometry x="1595" y="338" width="75" height="32" as="geometry" />
        </mxCell>
        <mxCell id="14" value="Enter necessary details" style="whiteSpace=wrap;strokeWidth=2;" vertex="1" parent="1">
          <mxGeometry x="1720" y="338" width="181" height="32" as="geometry" />
        </mxCell>
        <mxCell id="15" value="Are all details provided?" style="rhombus;strokeWidth=2;whiteSpace=wrap;" vertex="1" parent="1">
          <mxGeometry x="1952" y="173" width="218" height="218" as="geometry" />
        </mxCell>
        <mxCell id="16" value="Yes" style="rhombus;strokeWidth=2;whiteSpace=wrap;" vertex="1" parent="1">
          <mxGeometry x="2220" y="236" width="73" height="73" as="geometry" />
        </mxCell>
        <mxCell id="17" value="Register successful" style="whiteSpace=wrap;strokeWidth=2;" vertex="1" parent="1">
          <mxGeometry x="2343" y="256" width="154" height="32" as="geometry" />
        </mxCell>
        <mxCell id="18" value="Login" style="whiteSpace=wrap;strokeWidth=2;" vertex="1" parent="1">
          <mxGeometry x="2622" y="256" width="54" height="32" as="geometry" />
        </mxCell>
        <mxCell id="19" value="No" style="rhombus;strokeWidth=2;whiteSpace=wrap;" vertex="1" parent="1">
          <mxGeometry x="2222" y="382" width="68" height="68" as="geometry" />
        </mxCell>
        <mxCell id="20" value="" style="curved=1;startArrow=none;endArrow=block;exitX=1.007015306122449;exitY=0.49029541015625;entryX=0.0021894904458598726;entryY=0.5012067078025477;" edge="1" parent="1" source="2" target="3">
          <mxGeometry relative="1" as="geometry">
            <Array as="points" />
          </mxGeometry>
        </mxCell>
        <mxCell id="21" value="" style="curved=1;startArrow=none;endArrow=block;exitX=1.0046277866242037;exitY=0.5012067078025477;entryX=-0.0012543004587155964;entryY=0.49857547305045874;" edge="1" parent="1" source="3" target="4">
          <mxGeometry relative="1" as="geometry">
            <Array as="points" />
          </mxGeometry>
        </mxCell>
        <mxCell id="22" value="" style="curved=1;startArrow=none;endArrow=block;exitX=0.9977422591743119;exitY=0.49857547305045874;entryX=-0.002112392703862661;entryY=0.49029541015625;" edge="1" parent="1" source="4" target="5">
          <mxGeometry relative="1" as="geometry">
            <Array as="points" />
          </mxGeometry>
        </mxCell>
        <mxCell id="23" value="" style="curved=1;startArrow=none;endArrow=block;exitX=0.9974852467811158;exitY=0.49029541015625;entryX=0.001318670382165605;entryY=0.4990109972133758;" edge="1" parent="1" source="5" target="6">
          <mxGeometry relative="1" as="geometry">
            <Array as="points" />
          </mxGeometry>
        </mxCell>
        <mxCell id="24" value="" style="curved=1;startArrow=none;endArrow=block;exitX=1.0009952229299364;exitY=0.041501068065069376;entryX=0.00010702054794520547;entryY=0.4951840753424658;" edge="1" parent="1" source="6" target="7">
          <mxGeometry relative="1" as="geometry">
            <Array as="points">
              <mxPoint x="1196" y="103" />
            </Array>
          </mxGeometry>
        </mxCell>
        <mxCell id="25" value="" style="curved=1;startArrow=none;endArrow=block;exitX=1.001605308219178;exitY=0.4951840753424658;entryX=0.0020479368932038835;entryY=0.5007205703883495;" edge="1" parent="1" source="7" target="8">
          <mxGeometry relative="1" as="geometry">
            <Array as="points" />
          </mxGeometry>
        </mxCell>
        <mxCell id="26" value="" style="curved=1;startArrow=none;endArrow=block;exitX=1.0034890776699028;exitY=0.5007205703883495;entryX=0.36863808980762114;entryY=-0.0086669921875;" edge="1" parent="1" source="8" target="9">
          <mxGeometry relative="1" as="geometry">
            <Array as="points">
              <mxPoint x="2778" y="103" />
            </Array>
          </mxGeometry>
        </mxCell>
        <mxCell id="27" value="" style="curved=1;startArrow=none;endArrow=block;exitX=1.0001174812030076;exitY=0.4913330078125;entryX=0.0003633720930232558;entryY=0.4913330078125;" edge="1" parent="1" source="9" target="10">
          <mxGeometry relative="1" as="geometry">
            <Array as="points" />
          </mxGeometry>
        </mxCell>
        <mxCell id="28" value="" style="curved=1;startArrow=none;endArrow=block;exitX=1.0009952229299364;exitY=0.7313474260677069;entryX=0.004595588235294118;entryY=0.5038775275735294;" edge="1" parent="1" source="6" target="11">
          <mxGeometry relative="1" as="geometry">
            <Array as="points">
              <mxPoint x="1196" y="354" />
            </Array>
          </mxGeometry>
        </mxCell>
        <mxCell id="29" value="" style="curved=1;startArrow=none;endArrow=block;exitX=0.998046875;exitY=0.5038775275735294;entryX=-0.0006447208737864078;entryY=0.5012799605582524;" edge="1" parent="1" source="11" target="12">
          <mxGeometry relative="1" as="geometry">
            <Array as="points" />
          </mxGeometry>
        </mxCell>
        <mxCell id="30" value="" style="curved=1;startArrow=none;endArrow=block;exitX=1.0007964199029127;exitY=0.5012799605582524;entryX=0.0021875;entryY=0.50823974609375;" edge="1" parent="1" source="12" target="13">
          <mxGeometry relative="1" as="geometry">
            <Array as="points" />
          </mxGeometry>
        </mxCell>
        <mxCell id="31" value="" style="curved=1;startArrow=none;endArrow=block;exitX=1.0055208333333334;exitY=0.50823974609375;entryX=0.002287638121546961;entryY=0.50823974609375;" edge="1" parent="1" source="13" target="14">
          <mxGeometry relative="1" as="geometry">
            <Array as="points" />
          </mxGeometry>
        </mxCell>
        <mxCell id="32" value="" style="curved=1;startArrow=none;endArrow=block;exitX=0.6452130340809773;exitY=0.00823974609375;entryX=-0.0012543004587155964;entryY=0.5013618119266054;" edge="1" parent="1" source="14" target="15">
          <mxGeometry relative="1" as="geometry">
            <Array as="points">
              <mxPoint x="1927" y="282" />
            </Array>
          </mxGeometry>
        </mxCell>
        <mxCell id="33" value="" style="curved=1;startArrow=none;endArrow=block;exitX=0.9981364678899083;exitY=0.4640526223361997;entryX=-0.005565068493150685;entryY=0.4972174657534247;" edge="1" parent="1" source="15" target="16">
          <mxGeometry relative="1" as="geometry">
            <Array as="points">
              <mxPoint x="2195" y="272" />
            </Array>
          </mxGeometry>
        </mxCell>
        <mxCell id="34" value="" style="curved=1;startArrow=none;endArrow=block;exitX=0.9959332191780822;exitY=0.4972174657534247;entryX=-0.0019277597402597403;entryY=0.50927734375;" edge="1" parent="1" source="16" target="17">
          <mxGeometry relative="1" as="geometry">
            <Array as="points" />
          </mxGeometry>
        </mxCell>
        <mxCell id="35" value="" style="curved=1;startArrow=none;endArrow=block;exitX=0.9962459415584416;exitY=0.50927734375;entryX=0.009114583333333334;entryY=0.50927734375;" edge="1" parent="1" source="17" target="18">
          <mxGeometry relative="1" as="geometry">
            <Array as="points" />
          </mxGeometry>
        </mxCell>
        <mxCell id="36" value="" style="curved=1;startArrow=none;endArrow=block;exitX=1.0120081018518519;exitY=0.50927734375;entryX=0.36863808980762114;entryY=0.9913330078125;" edge="1" parent="1" source="18" target="9">
          <mxGeometry relative="1" as="geometry">
            <Array as="points">
              <mxPoint x="2778" y="272" />
            </Array>
          </mxGeometry>
        </mxCell>
        <mxCell id="37" value="" style="curved=1;startArrow=none;endArrow=block;exitX=0.9981364678899083;exitY=0.7325549092185586;entryX=0.07732320411491186;entryY=0.00666360294117647;" edge="1" parent="1" source="15" target="19">
          <mxGeometry relative="1" as="geometry">
            <Array as="points">
              <mxPoint x="2195" y="344" />
            </Array>
          </mxGeometry>
        </mxCell>
        <mxCell id="38" value="" style="curved=1;startArrow=none;endArrow=block;exitX=0.005457261029411764;exitY=0.5840858859388885;entryX=0.6452130340809773;entryY=1.00823974609375;" edge="1" parent="1" source="19" target="14">
          <mxGeometry relative="1" as="geometry">
            <Array as="points">
              <mxPoint x="2195" y="426" />
              <mxPoint x="1927" y="426" />
            </Array>
          </mxGeometry>
        </mxCell>
      </root>
    </mxGraphModel>
  </diagram>
</mxfile>
